# xmcd
#
# Track frame offsets: 
#        150
#        23543
#        39950
#        66824
#        95157
#        108461
#        132098
#        166660
#        188030
#        209075
#        226393
#        255240
#        279947
#        309748
#
# Disc length: 4777 seconds
#
# Revision: 0
# Processed by: cddbd v1.5.2PL0 Copyright (c) Steve Scherf et al.
# Submitted via: ExactAudioCopy v0.99pb5
#
DISCID=b612a70e
DTITLE=Various Artist - Planetfuzz Cowbells and Cobwebs
DYEAR=2010
DGENRE=Psychedelic Rock
TTITLE0=Mangoo - No Clue [previously unreleased]
TTITLE1=Orthodox Fuzz - Black Goat [previously unreleased]
TTITLE2=Arrowhead - Eagle Death Machine [previously unreleased]
TTITLE3=Ride the Sun - Ride [previously unreleased]
TTITLE4=Audio Dream Sister - Marquis Moon
TTITLE5=Sons of Giants - Mr Whoo [previously unreleased]
TTITLE6=Sungrazer - Zero Zero
TTITLE7=Moab - Morelore [previously unreleased]
TTITLE8=Honcho - Earth
TTITLE9=Gate 9 - Rolling Wheel [previously unreleased]
TTITLE10=Propane Propane - It's Alright
TTITLE11=Spelljammer - Nine
TTITLE12=Loimann - T.H.C. (Towards Higher Conciousness)
TTITLE13=The Grand Astoria - Raise the Dead [previously unreleased]
EXTD=
EXTT0=
EXTT1=
EXTT2=
EXTT3=
EXTT4=
EXTT5=
EXTT6=
EXTT7=
EXTT8=
EXTT9=
EXTT10=
EXTT11=
EXTT12=
EXTT13=
PLAYORDER=
